<svg id="Layer_1" data-name="Layer 1" xmlns="http://www.w3.org/2000/svg" viewBox="0 0 624.5 39.75"><defs><style>.cls-1{stroke:#000;stroke-miterlimit:10;stroke-width:0.75px;}</style></defs><title>logo2</title><path class="cls-1" d="M36.59,219.64a14.54,14.54,0,0,1-1.1,5.64,14.34,14.34,0,0,1-3.22,4.7,15.16,15.16,0,0,1-4.88,3.17,15.09,15.09,0,0,1-11.41,0A14.54,14.54,0,0,1,11.17,230a14.29,14.29,0,0,1,0-20.68A14.54,14.54,0,0,1,16,206.13a15.29,15.29,0,0,1,11.44,0,14.71,14.71,0,0,1,4.85,3.17,14.26,14.26,0,0,1,3.21,4.7A14.47,14.47,0,0,1,36.59,219.64ZM21.7,227.83a6.72,6.72,0,0,0,5.23-2.32,9.31,9.31,0,0,0,0-11.72,6.7,6.7,0,0,0-5.2-2.34,6.7,6.7,0,0,0-5.23,2.33,9.45,9.45,0,0,0,0,11.74A6.7,6.7,0,0,0,21.7,227.83Z" transform="translate(-6.42 -203.35)"/><path class="cls-1" d="M46.69,233.52,38,214.29h7.24l3.27,8.49c0,.09.08.2.13.33a14.8,14.8,0,0,1,.79,2.68,11.24,11.24,0,0,1,.74-2.49c.09-.23.15-.4.19-.52l3.27-8.49h7.07L52,233.52Z" transform="translate(-6.42 -203.35)"/><path class="cls-1" d="M82.81,225.26H68.18a5,5,0,0,0,1.15,3.44,4.15,4.15,0,0,0,3.18,1.2,5.32,5.32,0,0,0,2.6-.58,3.79,3.79,0,0,0,1.61-1.72l5.1,2.06a6.66,6.66,0,0,1-3.24,3.41,12.28,12.28,0,0,1-5.69,1.2,11.48,11.48,0,0,1-8.07-2.79,9.54,9.54,0,0,1-3-7.36,10,10,0,0,1,3-7.47,10.56,10.56,0,0,1,7.69-3,9.72,9.72,0,0,1,7.54,3q2.76,3,2.76,8.24Zm-6.68-3.83a4.17,4.17,0,0,0-1.25-2.63,4.09,4.09,0,0,0-5.24-.08,4.65,4.65,0,0,0-1.3,2.71Z" transform="translate(-6.42 -203.35)"/><path class="cls-1" d="M86.73,233.52V214.29h6.4v4.53a8.14,8.14,0,0,1,2.7-3.71,6.9,6.9,0,0,1,4.16-1.24l.81,0,.82.08-.64,6.17a7,7,0,0,0-1.2-.3,7.78,7.78,0,0,0-1.15-.1,4.81,4.81,0,0,0-3.81,1.52,6.23,6.23,0,0,0-1.35,4.29v8Z" transform="translate(-6.42 -203.35)"/><path class="cls-1" d="M117.92,220.61a7.31,7.31,0,0,0-1.9-1.27,4.69,4.69,0,0,0-1.92-.4,4.07,4.07,0,0,0-3.21,1.33,5.2,5.2,0,0,0-1.19,3.62,4.91,4.91,0,0,0,1.24,3.52,4.32,4.32,0,0,0,3.33,1.31,4.52,4.52,0,0,0,1.93-.41,5.5,5.5,0,0,0,1.72-1.26v5.88a10,10,0,0,1-2.43,1,9.63,9.63,0,0,1-2.52.33,9.53,9.53,0,0,1-7.18-2.85,10.32,10.32,0,0,1-2.76-7.5,10.1,10.1,0,0,1,2.81-7.37,9.67,9.67,0,0,1,7.21-2.87,10.81,10.81,0,0,1,2.65.29,7.82,7.82,0,0,1,2.22.91Z" transform="translate(-6.42 -203.35)"/><path class="cls-1" d="M122.29,233.52V204h6.79v29.51Z" transform="translate(-6.42 -203.35)"/><path class="cls-1" d="M154.66,224a9.75,9.75,0,0,1-.81,3.94,10.28,10.28,0,0,1-2.35,3.36,10.62,10.62,0,0,1-3.5,2.24,11,11,0,0,1-4.1.77,11.16,11.16,0,0,1-4.14-.77,10.25,10.25,0,0,1-3.46-2.24,10,10,0,0,1-2.32-3.33,9.88,9.88,0,0,1-.8-4,10.29,10.29,0,0,1,6.56-9.54,12,12,0,0,1,8.31,0,10.38,10.38,0,0,1,3.45,2.21,10.26,10.26,0,0,1,2.36,3.37A10,10,0,0,1,154.66,224Zm-6.74,0a5,5,0,0,0-1.09-3.39,4.12,4.12,0,0,0-5.87,0,5.87,5.87,0,0,0,0,6.77,4.14,4.14,0,0,0,5.89,0A4.94,4.94,0,0,0,147.92,224Z" transform="translate(-6.42 -203.35)"/><path class="cls-1" d="M172.37,220.61a7.35,7.35,0,0,0-1.91-1.27,4.69,4.69,0,0,0-1.92-.4,4.1,4.1,0,0,0-3.21,1.33,5.25,5.25,0,0,0-1.19,3.62,4.91,4.91,0,0,0,1.24,3.52,4.35,4.35,0,0,0,3.33,1.31,4.57,4.57,0,0,0,1.94-.41,5.62,5.62,0,0,0,1.72-1.26v5.88a10.1,10.1,0,0,1-2.44,1,10.3,10.3,0,0,1-9.7-2.52,10.32,10.32,0,0,1-2.75-7.5,10.06,10.06,0,0,1,2.81-7.37,9.64,9.64,0,0,1,7.2-2.87,10.81,10.81,0,0,1,2.65.29,7.88,7.88,0,0,1,2.23.91Z" transform="translate(-6.42 -203.35)"/><path class="cls-1" d="M176.58,233.52V204h6.66v18.68l7-8.4h8.42L190,223.54l9.43,10H190.5L183.24,225v8.55Z" transform="translate(-6.42 -203.35)"/><path class="cls-1" d="M202,233.52V205.64h7.6v10.84h10.13V205.64h7.61v27.88h-7.61V222.17H209.62v11.35Z" transform="translate(-6.42 -203.35)"/><path class="cls-1" d="M253.21,224a9.75,9.75,0,0,1-.81,3.94,10.31,10.31,0,0,1-2.36,3.36,10.57,10.57,0,0,1-3.49,2.24,11.43,11.43,0,0,1-8.25,0,10.21,10.21,0,0,1-3.45-2.24,10,10,0,0,1-3.12-7.3,10.29,10.29,0,0,1,6.56-9.54,12,12,0,0,1,8.31,0,10.68,10.68,0,0,1,5.81,5.58A10,10,0,0,1,253.21,224Zm-6.75,0a5,5,0,0,0-1.08-3.39,4.13,4.13,0,0,0-5.88,0,5,5,0,0,0-1.07,3.39,4.93,4.93,0,0,0,1.07,3.38,4.14,4.14,0,0,0,5.89,0A4.93,4.93,0,0,0,246.46,224Z" transform="translate(-6.42 -203.35)"/><path class="cls-1" d="M255.32,231.92l1.41-5.18a10.84,10.84,0,0,0,3.27,2,9.62,9.62,0,0,0,3.58.7,3.8,3.8,0,0,0,1.95-.41,1.31,1.31,0,0,0,.66-1.19c0-.85-.89-1.49-2.68-1.91q-.88-.21-1.41-.36a10.1,10.1,0,0,1-4.43-2.2,4.72,4.72,0,0,1-1.38-3.53,5.39,5.39,0,0,1,2.11-4.47,8.87,8.87,0,0,1,5.7-1.68,17,17,0,0,1,3.76.43,19.81,19.81,0,0,1,3.91,1.32l-1.41,4.67a11.24,11.24,0,0,0-2.74-1.39,8.47,8.47,0,0,0-2.78-.48,3.41,3.41,0,0,0-1.75.36,1.16,1.16,0,0,0-.59,1c0,.69.89,1.26,2.67,1.73.4.12.71.2.91.25A11.63,11.63,0,0,1,271,224a5,5,0,0,1,1.38,3.69,5.84,5.84,0,0,1-2.26,4.77,9.31,9.31,0,0,1-6,1.82,18,18,0,0,1-4.7-.59A14.78,14.78,0,0,1,255.32,231.92Z" transform="translate(-6.42 -203.35)"/><path class="cls-1" d="M277,233.52V219.09h-2.88v-4.8H277v-5.73h6.68v5.73h2.88v4.8h-2.88v14.43Z" transform="translate(-6.42 -203.35)"/><path class="cls-1" d="M307,203.72h4.57v39H307Z" transform="translate(-6.42 -203.35)"/><path class="cls-1" d="M334.14,233.52V205.64h7.33L352,220a19.72,19.72,0,0,1,1,1.76c.46.89,1,1.94,1.53,3.16q-.22-1.74-.33-3.09c-.07-.9-.1-1.7-.1-2.4V205.64h7.29v27.88H354.1l-10.54-14.39a17.4,17.4,0,0,1-1-1.77c-.47-.88-1-1.92-1.52-3.11.15,1.17.27,2.2.34,3.1s.1,1.71.1,2.4v13.77Z" transform="translate(-6.42 -203.35)"/><path class="cls-1" d="M386.83,225.26H372.21a4.93,4.93,0,0,0,1.14,3.44,4.15,4.15,0,0,0,3.18,1.2,5.32,5.32,0,0,0,2.6-.58,3.79,3.79,0,0,0,1.61-1.72l5.1,2.06a6.66,6.66,0,0,1-3.24,3.41,12.28,12.28,0,0,1-5.69,1.2,11.48,11.48,0,0,1-8.07-2.79,9.54,9.54,0,0,1-3-7.36,10,10,0,0,1,3-7.47,10.56,10.56,0,0,1,7.69-3,9.72,9.72,0,0,1,7.54,3q2.76,3,2.76,8.24Zm-6.68-3.83a4.17,4.17,0,0,0-1.25-2.63,3.65,3.65,0,0,0-2.6-1,3.73,3.73,0,0,0-2.64.91,4.65,4.65,0,0,0-1.3,2.71Z" transform="translate(-6.42 -203.35)"/><path class="cls-1" d="M391.76,233.52V219.09h-2.87v-4.8h2.87v-5.73h6.69v5.73h2.87v4.8h-2.87v14.43Z" transform="translate(-6.42 -203.35)"/><path class="cls-1" d="M419.7,214.29l2.84,8.51,0,.13a17.34,17.34,0,0,1,.8,2.86c.08-.41.18-.83.3-1.27s.29-1,.52-1.72l2.9-8.51h7l-8.07,19.23h-4.8l-2.86-8.7c-.15-.5-.29-1-.41-1.49s-.23-1-.33-1.5a28.05,28.05,0,0,1-.74,2.88l0,.13L414,233.52h-4.8l-8-19.23h7l2.87,8.51c.22.62.39,1.17.52,1.63s.22.92.3,1.36a19.66,19.66,0,0,1,.74-2.65l.12-.34,2.85-8.51Z" transform="translate(-6.42 -203.35)"/><path class="cls-1" d="M456.2,224a9.75,9.75,0,0,1-.81,3.94,10.13,10.13,0,0,1-2.35,3.36,10.57,10.57,0,0,1-3.49,2.24,11.43,11.43,0,0,1-8.25,0,10.19,10.19,0,0,1-6.58-9.54,9.91,9.91,0,0,1,3.13-7.33,10.1,10.1,0,0,1,3.43-2.21,12.06,12.06,0,0,1,8.32,0,10.62,10.62,0,0,1,5.8,5.58A9.87,9.87,0,0,1,456.2,224Zm-6.74,0a5,5,0,0,0-1.08-3.39,4.13,4.13,0,0,0-5.88,0,5,5,0,0,0-1.07,3.39,5,5,0,0,0,1.06,3.38,4.15,4.15,0,0,0,5.9,0A5,5,0,0,0,449.46,224Z" transform="translate(-6.42 -203.35)"/><path class="cls-1" d="M460.15,233.52V214.29h6.39v4.53a8.15,8.15,0,0,1,2.71-3.71,6.85,6.85,0,0,1,4.15-1.24q.41,0,.81,0l.83.08-.65,6.17a7,7,0,0,0-1.2-.3,7.53,7.53,0,0,0-1.14-.1,4.85,4.85,0,0,0-3.82,1.52,6.23,6.23,0,0,0-1.34,4.29v8Z" transform="translate(-6.42 -203.35)"/><path class="cls-1" d="M477.57,233.52V204h6.66v18.68l7-8.4h8.42L491,223.54l9.42,10h-8.93L484.23,225v8.55Z" transform="translate(-6.42 -203.35)"/><path class="cls-1" d="M516.46,224.52a13.66,13.66,0,0,0,3.34,2.87,6.46,6.46,0,0,0,3.28,1,3.77,3.77,0,0,0,2.51-.82,2.58,2.58,0,0,0,1-2.07,2.69,2.69,0,0,0-.85-2.14,10.59,10.59,0,0,0-3.84-1.56,12.46,12.46,0,0,1-5.79-2.87A6.73,6.73,0,0,1,514.4,214a8.54,8.54,0,0,1,2.68-6.52A9.69,9.69,0,0,1,524,205a14.94,14.94,0,0,1,4.37.62,14,14,0,0,1,3.91,1.87l-2.38,5.47a10,10,0,0,0-2.66-1.67,7.05,7.05,0,0,0-2.69-.56,3.54,3.54,0,0,0-2.23.66,2,2,0,0,0-.86,1.68,2.06,2.06,0,0,0,.76,1.68,8.1,8.1,0,0,0,2.9,1.2l.34.09q4.65,1.26,6.12,2.76a6.8,6.8,0,0,1,1.5,2.47,9.49,9.49,0,0,1,.51,3.19,9.26,9.26,0,0,1-2.91,7.13,11,11,0,0,1-7.77,2.7,13.53,13.53,0,0,1-5.3-1,14.87,14.87,0,0,1-4.6-3.1Z" transform="translate(-6.42 -203.35)"/><path class="cls-1" d="M538.45,233.52V219.09h-2.87v-4.8h2.87v-5.73h6.69v5.73H548v4.8h-2.87v14.43Z" transform="translate(-6.42 -203.35)"/><path class="cls-1" d="M571.8,214.29v19.23h-6.23V230.4a9,9,0,0,1-3,2.93,7.91,7.91,0,0,1-3.91.94,7.54,7.54,0,0,1-6.15-2.81,11.53,11.53,0,0,1-2.31-7.54,11,11,0,0,1,2.41-7.47,8.15,8.15,0,0,1,6.48-2.77,7.34,7.34,0,0,1,3.75.92,7.81,7.81,0,0,1,2.69,2.85v-3.16Zm-6,9.6a5.06,5.06,0,0,0-1.2-3.56,4.74,4.74,0,0,0-6.55,0,5.11,5.11,0,0,0-1.19,3.57,5,5,0,0,0,1.2,3.54,4.79,4.79,0,0,0,6.54,0A5,5,0,0,0,565.84,223.89Z" transform="translate(-6.42 -203.35)"/><path class="cls-1" d="M578,233.52V219.09h-2.88v-4.8H578v-5.73h6.68v5.73h2.88v4.8h-2.88v14.43Z" transform="translate(-6.42 -203.35)"/><path class="cls-1" d="M610.41,214.29v9.83a16.32,16.32,0,0,1-.52,4.82,7,7,0,0,1-1.76,2.79,8,8,0,0,1-3.18,1.91,14.29,14.29,0,0,1-4.48.63,14.07,14.07,0,0,1-4.44-.63,8.43,8.43,0,0,1-3.23-1.91,6.45,6.45,0,0,1-1.75-2.77,16.92,16.92,0,0,1-.52-4.84v-9.83H597v10.26a6,6,0,0,0,.8,3.5,3,3,0,0,0,2.59,1.07,3.06,3.06,0,0,0,2.6-1.05,6.08,6.08,0,0,0,.79-3.52V214.29Z" transform="translate(-6.42 -203.35)"/><path class="cls-1" d="M613.5,231.92l1.41-5.18a10.91,10.91,0,0,0,3.26,2,9.71,9.71,0,0,0,3.59.7,3.83,3.83,0,0,0,2-.41,1.31,1.31,0,0,0,.66-1.19c0-.85-.89-1.49-2.68-1.91q-.88-.21-1.41-.36a10.1,10.1,0,0,1-4.43-2.2,4.72,4.72,0,0,1-1.38-3.53,5.39,5.39,0,0,1,2.11-4.47,8.87,8.87,0,0,1,5.7-1.68,17,17,0,0,1,3.76.43,19.81,19.81,0,0,1,3.91,1.32l-1.41,4.67a11.24,11.24,0,0,0-2.74-1.39,8.47,8.47,0,0,0-2.78-.48,3.41,3.41,0,0,0-1.75.36,1.16,1.16,0,0,0-.59,1c0,.69.89,1.26,2.66,1.73l.92.25a11.63,11.63,0,0,1,4.9,2.37,5,5,0,0,1,1.38,3.69,5.84,5.84,0,0,1-2.26,4.77,9.31,9.31,0,0,1-6,1.82,18.08,18.08,0,0,1-4.71-.59A14.85,14.85,0,0,1,613.5,231.92Z" transform="translate(-6.42 -203.35)"/></svg>