<svg id="Layer_1" data-name="Layer 1" xmlns="http://www.w3.org/2000/svg" viewBox="0 0 624.5 39.75"><defs><style>.cls-1{stroke:#000;stroke-miterlimit:10;stroke-width:0.75px;}</style></defs><title>logo2</title><path class="cls-1" d="M29.59,15.64a14.54,14.54,0,0,1-1.1,5.64A14.34,14.34,0,0,1,25.27,26a15.16,15.16,0,0,1-4.88,3.17A15.09,15.09,0,0,1,9,29.15,14.54,14.54,0,0,1,4.17,26a14.29,14.29,0,0,1,0-20.68A14.54,14.54,0,0,1,9,2.13a15.29,15.29,0,0,1,11.44,0A14.71,14.71,0,0,1,25.27,5.3,14.26,14.26,0,0,1,28.48,10,14.47,14.47,0,0,1,29.59,15.64ZM14.7,23.83a6.72,6.72,0,0,0,5.23-2.32A8.5,8.5,0,0,0,22,15.64,8.44,8.44,0,0,0,19.9,9.79a6.7,6.7,0,0,0-5.2-2.34A6.7,6.7,0,0,0,9.47,9.78a8.56,8.56,0,0,0-2.06,5.86,8.56,8.56,0,0,0,2,5.88A6.7,6.7,0,0,0,14.7,23.83Z" transform="translate(0.58 0.65)"/><path class="cls-1" d="M39.69,29.52,31,10.29h7.24l3.27,8.49c0,.09.08.2.13.33a14.8,14.8,0,0,1,.79,2.68,11.24,11.24,0,0,1,.74-2.49c.09-.23.15-.4.19-.52l3.27-8.49h7.07L45,29.52Z" transform="translate(0.58 0.65)"/><path class="cls-1" d="M75.81,21.26H61.18a5,5,0,0,0,1.15,3.44,4.15,4.15,0,0,0,3.18,1.2,5.32,5.32,0,0,0,2.6-.58,3.79,3.79,0,0,0,1.61-1.72l5.1,2.06a6.66,6.66,0,0,1-3.24,3.41,12.28,12.28,0,0,1-5.69,1.2,11.48,11.48,0,0,1-8.07-2.79,9.54,9.54,0,0,1-3-7.36,10,10,0,0,1,3-7.47,10.56,10.56,0,0,1,7.69-3,9.72,9.72,0,0,1,7.54,3q2.76,3,2.76,8.24Zm-6.68-3.83a4.17,4.17,0,0,0-1.25-2.63,4.09,4.09,0,0,0-5.24-.08,4.65,4.65,0,0,0-1.3,2.71Z" transform="translate(0.58 0.65)"/><path class="cls-1" d="M79.73,29.52V10.29h6.4v4.53a8.14,8.14,0,0,1,2.7-3.71A6.9,6.9,0,0,1,93,9.87l.81,0,.82.08L94,16.15a7,7,0,0,0-1.2-.3,7.78,7.78,0,0,0-1.15-.1,4.81,4.81,0,0,0-3.81,1.52,6.23,6.23,0,0,0-1.35,4.29v8Z" transform="translate(0.58 0.65)"/><path class="cls-1" d="M110.92,16.61a7.31,7.31,0,0,0-1.9-1.27,4.69,4.69,0,0,0-1.92-.4,4.07,4.07,0,0,0-3.21,1.33,5.2,5.2,0,0,0-1.19,3.62,4.91,4.91,0,0,0,1.24,3.52,4.32,4.32,0,0,0,3.33,1.31,4.52,4.52,0,0,0,1.93-.41,5.5,5.5,0,0,0,1.72-1.26v5.88a10,10,0,0,1-2.43,1,9.63,9.63,0,0,1-2.52.33,9.53,9.53,0,0,1-7.18-2.85A10.32,10.32,0,0,1,96,19.92a10.1,10.1,0,0,1,2.81-7.37,9.67,9.67,0,0,1,7.21-2.87,10.81,10.81,0,0,1,2.65.29,7.82,7.82,0,0,1,2.22.91Z" transform="translate(0.58 0.65)"/><path class="cls-1" d="M115.29,29.52V0h6.79V29.52Z" transform="translate(0.58 0.65)"/><path class="cls-1" d="M147.66,20a9.75,9.75,0,0,1-.81,3.94,10.28,10.28,0,0,1-2.35,3.36A10.62,10.62,0,0,1,141,29.5a11,11,0,0,1-4.1.77,11.16,11.16,0,0,1-4.14-.77,10.25,10.25,0,0,1-3.46-2.24A10,10,0,0,1,127,23.93a9.88,9.88,0,0,1-.8-4,10.29,10.29,0,0,1,6.56-9.54,12,12,0,0,1,8.31,0,10.38,10.38,0,0,1,3.45,2.21A10.26,10.26,0,0,1,146.86,16,10,10,0,0,1,147.66,20Zm-6.74,0a5,5,0,0,0-1.09-3.39,4.12,4.12,0,0,0-5.87,0A5,5,0,0,0,132.88,20,5,5,0,0,0,134,23.34a4.14,4.14,0,0,0,5.89,0A4.94,4.94,0,0,0,140.92,20Z" transform="translate(0.58 0.65)"/><path class="cls-1" d="M165.37,16.61a7.35,7.35,0,0,0-1.91-1.27,4.69,4.69,0,0,0-1.92-.4,4.1,4.1,0,0,0-3.21,1.33,5.25,5.25,0,0,0-1.19,3.62,4.91,4.91,0,0,0,1.24,3.52,4.35,4.35,0,0,0,3.33,1.31,4.57,4.57,0,0,0,1.94-.41,5.62,5.62,0,0,0,1.72-1.26v5.88a10.1,10.1,0,0,1-2.44,1,10.3,10.3,0,0,1-9.7-2.52,10.32,10.32,0,0,1-2.75-7.5,10.06,10.06,0,0,1,2.81-7.37,9.64,9.64,0,0,1,7.2-2.87,10.81,10.81,0,0,1,2.65.29,7.88,7.88,0,0,1,2.23.91Z" transform="translate(0.58 0.65)"/><path class="cls-1" d="M169.58,29.52V0h6.66V18.69l7-8.4h8.42L183,19.54l9.43,10H183.5L176.24,21v8.55Z" transform="translate(0.58 0.65)"/><path class="cls-1" d="M195,29.52V1.64h7.6V12.48h10.13V1.64h7.61V29.52h-7.61V18.17H202.62V29.52Z" transform="translate(0.58 0.65)"/><path class="cls-1" d="M246.21,20a9.75,9.75,0,0,1-.81,3.94A10.31,10.31,0,0,1,243,27.26a10.57,10.57,0,0,1-3.49,2.24,11.43,11.43,0,0,1-8.25,0,10.21,10.21,0,0,1-3.45-2.24,10,10,0,0,1-3.12-7.3,10.29,10.29,0,0,1,6.56-9.54,12,12,0,0,1,8.31,0A10.68,10.68,0,0,1,245.41,16,10,10,0,0,1,246.21,20Zm-6.75,0a5,5,0,0,0-1.08-3.39,4.13,4.13,0,0,0-5.88,0A5,5,0,0,0,231.43,20a4.93,4.93,0,0,0,1.07,3.38,4.14,4.14,0,0,0,5.89,0A4.93,4.93,0,0,0,239.46,20Z" transform="translate(0.58 0.65)"/><path class="cls-1" d="M248.32,27.92l1.41-5.18a10.84,10.84,0,0,0,3.27,2,9.62,9.62,0,0,0,3.58.7,3.8,3.8,0,0,0,1.95-.41,1.31,1.31,0,0,0,.66-1.19c0-.85-.89-1.49-2.68-1.91q-.88-.21-1.41-.36a10.1,10.1,0,0,1-4.43-2.2,4.72,4.72,0,0,1-1.38-3.53,5.39,5.39,0,0,1,2.11-4.47,8.87,8.87,0,0,1,5.7-1.68,17,17,0,0,1,3.76.43,19.81,19.81,0,0,1,3.91,1.32l-1.41,4.67a11.24,11.24,0,0,0-2.74-1.39,8.47,8.47,0,0,0-2.78-.48,3.41,3.41,0,0,0-1.75.36,1.16,1.16,0,0,0-.59,1.05c0,.69.89,1.26,2.67,1.73.4.12.71.2.91.25A11.63,11.63,0,0,1,264,20a5,5,0,0,1,1.38,3.69,5.84,5.84,0,0,1-2.26,4.77,9.31,9.31,0,0,1-6,1.82,18,18,0,0,1-4.7-.59A14.78,14.78,0,0,1,248.32,27.92Z" transform="translate(0.58 0.65)"/><path class="cls-1" d="M270,29.52V15.09h-2.88v-4.8H270V4.56h6.68v5.73h2.88v4.8h-2.88V29.52Z" transform="translate(0.58 0.65)"/><path class="cls-1" d="M300-.28h4.57v39H300Z" transform="translate(0.58 0.65)"/><path class="cls-1" d="M327.14,29.52V1.64h7.33L345,16a19.72,19.72,0,0,1,1,1.76c.46.89,1,1.94,1.53,3.16q-.22-1.74-.33-3.09c-.07-.9-.1-1.7-.1-2.4V1.64h7.29V29.52H347.1L336.56,15.13a17.4,17.4,0,0,1-1-1.77c-.47-.88-1-1.92-1.52-3.11.15,1.17.27,2.2.34,3.1s.1,1.71.1,2.4V29.52Z" transform="translate(0.58 0.65)"/><path class="cls-1" d="M379.83,21.26H365.21a4.93,4.93,0,0,0,1.14,3.44,4.15,4.15,0,0,0,3.18,1.2,5.32,5.32,0,0,0,2.6-.58,3.79,3.79,0,0,0,1.61-1.72l5.1,2.06a6.66,6.66,0,0,1-3.24,3.41,12.28,12.28,0,0,1-5.69,1.2,11.48,11.48,0,0,1-8.07-2.79,9.54,9.54,0,0,1-3-7.36,10,10,0,0,1,3-7.47,10.56,10.56,0,0,1,7.69-3,9.72,9.72,0,0,1,7.54,3q2.76,3,2.76,8.24Zm-6.68-3.83a4.17,4.17,0,0,0-1.25-2.63,3.65,3.65,0,0,0-2.6-1,3.73,3.73,0,0,0-2.64.91,4.65,4.65,0,0,0-1.3,2.71Z" transform="translate(0.58 0.65)"/><path class="cls-1" d="M384.76,29.52V15.09h-2.87v-4.8h2.87V4.56h6.69v5.73h2.87v4.8h-2.87V29.52Z" transform="translate(0.58 0.65)"/><path class="cls-1" d="M412.7,10.29l2.84,8.51,0,.13a17.34,17.34,0,0,1,.8,2.86c.08-.41.18-.83.3-1.27s.29-1,.52-1.72l2.9-8.51h7l-8.07,19.23h-4.8l-2.86-8.7c-.15-.5-.29-1-.41-1.49s-.23-1-.33-1.5a28.05,28.05,0,0,1-.74,2.88l0,.13L407,29.52h-4.8l-8-19.23h7l2.87,8.51c.22.62.39,1.17.52,1.63s.22.92.3,1.36a19.66,19.66,0,0,1,.74-2.65l.12-.34,2.85-8.51Z" transform="translate(0.58 0.65)"/><path class="cls-1" d="M449.2,20a9.75,9.75,0,0,1-.81,3.94A10.13,10.13,0,0,1,446,27.26a10.57,10.57,0,0,1-3.49,2.24,11.43,11.43,0,0,1-8.25,0A10.19,10.19,0,0,1,427.72,20a9.91,9.91,0,0,1,3.13-7.33,10.1,10.1,0,0,1,3.43-2.21,12.06,12.06,0,0,1,8.32,0A10.62,10.62,0,0,1,448.4,16,9.87,9.87,0,0,1,449.2,20Zm-6.74,0a5,5,0,0,0-1.08-3.39,4.13,4.13,0,0,0-5.88,0A5,5,0,0,0,434.43,20a5,5,0,0,0,1.06,3.38,4.15,4.15,0,0,0,5.9,0A5,5,0,0,0,442.46,20Z" transform="translate(0.58 0.65)"/><path class="cls-1" d="M453.15,29.52V10.29h6.39v4.53a8.15,8.15,0,0,1,2.71-3.71,6.85,6.85,0,0,1,4.15-1.24q.41,0,.81,0L468,10l-.65,6.17a7,7,0,0,0-1.2-.3,7.53,7.53,0,0,0-1.14-.1,4.85,4.85,0,0,0-3.82,1.52,6.23,6.23,0,0,0-1.34,4.29v8Z" transform="translate(0.58 0.65)"/><path class="cls-1" d="M470.57,29.52V0h6.66V18.69l7-8.4h8.42L484,19.54l9.42,10h-8.93L477.23,21v8.55Z" transform="translate(0.58 0.65)"/><path class="cls-1" d="M509.46,20.52a13.66,13.66,0,0,0,3.34,2.87,6.46,6.46,0,0,0,3.28.95,3.77,3.77,0,0,0,2.51-.82,2.58,2.58,0,0,0,1-2.07,2.69,2.69,0,0,0-.85-2.14,10.59,10.59,0,0,0-3.84-1.56,12.46,12.46,0,0,1-5.79-2.87A6.73,6.73,0,0,1,507.4,10a8.54,8.54,0,0,1,2.68-6.52A9.69,9.69,0,0,1,517,1a14.94,14.94,0,0,1,4.37.62,14,14,0,0,1,3.91,1.87l-2.38,5.47a10,10,0,0,0-2.66-1.67,7.05,7.05,0,0,0-2.69-.56,3.54,3.54,0,0,0-2.23.66,2,2,0,0,0-.86,1.68,2.06,2.06,0,0,0,.76,1.68,8.1,8.1,0,0,0,2.9,1.2l.34.09q4.65,1.26,6.12,2.76a6.8,6.8,0,0,1,1.5,2.47,9.49,9.49,0,0,1,.51,3.19,9.26,9.26,0,0,1-2.91,7.13,11,11,0,0,1-7.77,2.7,13.53,13.53,0,0,1-5.3-1,14.87,14.87,0,0,1-4.6-3.1Z" transform="translate(0.58 0.65)"/><path class="cls-1" d="M531.45,29.52V15.09h-2.87v-4.8h2.87V4.56h6.69v5.73H541v4.8h-2.87V29.52Z" transform="translate(0.58 0.65)"/><path class="cls-1" d="M564.8,10.29V29.52h-6.23V26.4a9,9,0,0,1-3,2.93,7.91,7.91,0,0,1-3.91.94,7.54,7.54,0,0,1-6.15-2.81,11.53,11.53,0,0,1-2.31-7.54,11,11,0,0,1,2.41-7.47,8.15,8.15,0,0,1,6.48-2.77,7.34,7.34,0,0,1,3.75.92,7.81,7.81,0,0,1,2.69,2.85V10.29Zm-6,9.6a5.06,5.06,0,0,0-1.2-3.56,4.74,4.74,0,0,0-6.55,0,5.11,5.11,0,0,0-1.19,3.57,5,5,0,0,0,1.2,3.54,4.79,4.79,0,0,0,6.54,0A5,5,0,0,0,558.84,19.89Z" transform="translate(0.58 0.65)"/><path class="cls-1" d="M571,29.52V15.09h-2.88v-4.8H571V4.56h6.68v5.73h2.88v4.8h-2.88V29.52Z" transform="translate(0.58 0.65)"/><path class="cls-1" d="M603.41,10.29v9.83a16.32,16.32,0,0,1-.52,4.82,7,7,0,0,1-1.76,2.79A8,8,0,0,1,598,29.64a14.29,14.29,0,0,1-4.48.63,14.07,14.07,0,0,1-4.44-.63,8.43,8.43,0,0,1-3.23-1.91A6.45,6.45,0,0,1,584.05,25a16.92,16.92,0,0,1-.52-4.84V10.29H590V20.55a6,6,0,0,0,.8,3.5,3,3,0,0,0,2.59,1.07,3.06,3.06,0,0,0,2.6-1.05,6.08,6.08,0,0,0,.79-3.52V10.29Z" transform="translate(0.58 0.65)"/><path class="cls-1" d="M606.5,27.92l1.41-5.18a10.91,10.91,0,0,0,3.26,2,9.71,9.71,0,0,0,3.59.7,3.83,3.83,0,0,0,2-.41,1.31,1.31,0,0,0,.66-1.19c0-.85-.89-1.49-2.68-1.91q-.88-.21-1.41-.36a10.1,10.1,0,0,1-4.43-2.2,4.72,4.72,0,0,1-1.38-3.53,5.39,5.39,0,0,1,2.11-4.47,8.87,8.87,0,0,1,5.7-1.68,17,17,0,0,1,3.76.43A19.81,19.81,0,0,1,623,11.43l-1.41,4.67a11.24,11.24,0,0,0-2.74-1.39,8.47,8.47,0,0,0-2.78-.48,3.41,3.41,0,0,0-1.75.36,1.16,1.16,0,0,0-.59,1.05c0,.69.89,1.26,2.66,1.73l.92.25a11.63,11.63,0,0,1,4.9,2.37,5,5,0,0,1,1.38,3.69,5.84,5.84,0,0,1-2.26,4.77,9.31,9.31,0,0,1-6,1.82,18.08,18.08,0,0,1-4.71-.59A14.85,14.85,0,0,1,606.5,27.92Z" transform="translate(0.58 0.65)"/></svg>